<mxfile host="app.diagrams.net" modified="2023-11-14T02:20:30.438Z" agent="Mozilla/5.0 (Windows NT 10.0; Win64; x64) AppleWebKit/537.36 (KHTML, like Gecko) Chrome/119.0.0.0 Safari/537.36" etag="3bcn048poj1A6Y7AdFhu" version="22.1.0" type="device">
  <diagram name="Trang-1" id="g2Qi6T4mh7bS8RUE0D1-">
    <mxGraphModel dx="880" dy="484" grid="1" gridSize="10" guides="1" tooltips="1" connect="1" arrows="1" fold="1" page="1" pageScale="1" pageWidth="827" pageHeight="1169" math="0" shadow="0">
      <root>
        <mxCell id="0" />
        <mxCell id="1" parent="0" />
        <mxCell id="BjmK89sbdbPWP_uoEziy-3" style="edgeStyle=orthogonalEdgeStyle;rounded=0;orthogonalLoop=1;jettySize=auto;html=1;exitX=0.5;exitY=1;exitDx=0;exitDy=0;" edge="1" parent="1" source="BjmK89sbdbPWP_uoEziy-1" target="BjmK89sbdbPWP_uoEziy-2">
          <mxGeometry relative="1" as="geometry" />
        </mxCell>
        <mxCell id="BjmK89sbdbPWP_uoEziy-1" value="&lt;font style=&quot;vertical-align: inherit;&quot;&gt;&lt;font style=&quot;vertical-align: inherit;&quot;&gt;Start&lt;/font&gt;&lt;/font&gt;" style="ellipse;whiteSpace=wrap;html=1;" vertex="1" parent="1">
          <mxGeometry x="340" width="120" height="80" as="geometry" />
        </mxCell>
        <mxCell id="BjmK89sbdbPWP_uoEziy-5" style="edgeStyle=orthogonalEdgeStyle;rounded=0;orthogonalLoop=1;jettySize=auto;html=1;exitX=0.5;exitY=1;exitDx=0;exitDy=0;" edge="1" parent="1" source="BjmK89sbdbPWP_uoEziy-2" target="BjmK89sbdbPWP_uoEziy-4">
          <mxGeometry relative="1" as="geometry" />
        </mxCell>
        <mxCell id="BjmK89sbdbPWP_uoEziy-2" value="&lt;font style=&quot;vertical-align: inherit;&quot;&gt;&lt;font style=&quot;vertical-align: inherit;&quot;&gt;Number&lt;/font&gt;&lt;/font&gt;" style="shape=parallelogram;perimeter=parallelogramPerimeter;whiteSpace=wrap;html=1;fixedSize=1;" vertex="1" parent="1">
          <mxGeometry x="340" y="130" width="120" height="60" as="geometry" />
        </mxCell>
        <mxCell id="BjmK89sbdbPWP_uoEziy-7" style="edgeStyle=orthogonalEdgeStyle;rounded=0;orthogonalLoop=1;jettySize=auto;html=1;exitX=0.5;exitY=1;exitDx=0;exitDy=0;" edge="1" parent="1" source="BjmK89sbdbPWP_uoEziy-4" target="BjmK89sbdbPWP_uoEziy-6">
          <mxGeometry relative="1" as="geometry" />
        </mxCell>
        <mxCell id="BjmK89sbdbPWP_uoEziy-10" value="true" style="edgeLabel;html=1;align=center;verticalAlign=middle;resizable=0;points=[];" vertex="1" connectable="0" parent="BjmK89sbdbPWP_uoEziy-7">
          <mxGeometry x="-0.2" y="1" relative="1" as="geometry">
            <mxPoint as="offset" />
          </mxGeometry>
        </mxCell>
        <mxCell id="BjmK89sbdbPWP_uoEziy-4" value="i&amp;lt;=100" style="rhombus;whiteSpace=wrap;html=1;" vertex="1" parent="1">
          <mxGeometry x="360" y="250" width="80" height="80" as="geometry" />
        </mxCell>
        <mxCell id="BjmK89sbdbPWP_uoEziy-8" style="edgeStyle=orthogonalEdgeStyle;rounded=0;orthogonalLoop=1;jettySize=auto;html=1;exitX=0.5;exitY=1;exitDx=0;exitDy=0;" edge="1" parent="1" source="BjmK89sbdbPWP_uoEziy-6" target="BjmK89sbdbPWP_uoEziy-9">
          <mxGeometry relative="1" as="geometry">
            <mxPoint x="400" y="490" as="targetPoint" />
          </mxGeometry>
        </mxCell>
        <mxCell id="BjmK89sbdbPWP_uoEziy-11" value="true" style="edgeLabel;html=1;align=center;verticalAlign=middle;resizable=0;points=[];" vertex="1" connectable="0" parent="BjmK89sbdbPWP_uoEziy-8">
          <mxGeometry x="-0.08" relative="1" as="geometry">
            <mxPoint as="offset" />
          </mxGeometry>
        </mxCell>
        <mxCell id="BjmK89sbdbPWP_uoEziy-6" value="i=1" style="shape=parallelogram;perimeter=parallelogramPerimeter;whiteSpace=wrap;html=1;fixedSize=1;" vertex="1" parent="1">
          <mxGeometry x="340" y="380" width="120" height="60" as="geometry" />
        </mxCell>
        <mxCell id="BjmK89sbdbPWP_uoEziy-9" value="i++" style="rounded=0;whiteSpace=wrap;html=1;" vertex="1" parent="1">
          <mxGeometry x="340" y="490" width="120" height="60" as="geometry" />
        </mxCell>
        <mxCell id="BjmK89sbdbPWP_uoEziy-12" value="" style="rhombus;whiteSpace=wrap;html=1;" vertex="1" parent="1">
          <mxGeometry x="360" y="620" width="80" height="80" as="geometry" />
        </mxCell>
        <mxCell id="BjmK89sbdbPWP_uoEziy-13" style="edgeStyle=orthogonalEdgeStyle;rounded=0;orthogonalLoop=1;jettySize=auto;html=1;exitX=0.5;exitY=1;exitDx=0;exitDy=0;entryX=0.5;entryY=0;entryDx=0;entryDy=0;entryPerimeter=0;" edge="1" parent="1" source="BjmK89sbdbPWP_uoEziy-9" target="BjmK89sbdbPWP_uoEziy-12">
          <mxGeometry relative="1" as="geometry" />
        </mxCell>
      </root>
    </mxGraphModel>
  </diagram>
</mxfile>
